<?xml version="1.0" standalone="no"?><!DOCTYPE svg PUBLIC "-//W3C//DTD SVG 1.1//EN" "http://www.w3.org/Graphics/SVG/1.1/DTD/svg11.dtd"><svg t="1501464422046" class="icon" style="" viewBox="0 0 1024 1024" version="1.1" xmlns="http://www.w3.org/2000/svg" p-id="1036" xmlns:xlink="http://www.w3.org/1999/xlink" width="200" height="200"><defs><style type="text/css"></style></defs><path d="M887.007953 766.435876l0-36.125779c0-73.620741-62.220087-133.511783-138.700969-133.511783l-8.948813 0c-76.480882 0-138.700969 59.890019-138.700969 133.511783l0 94.748944c0 40.36636-34.123168 73.215512-76.06235 73.215512l-8.946766 0c-41.937135 0-76.06235-32.849152-76.06235-73.215512L439.585737 647.570675l25.919323 0 0-26.917046c156.36221-13.987572 188.459233-197.926862 211.966623-333.087191 1.853208-10.640338 3.662413-21.079084 5.497201-31.224142 10.984169-60.792575 2.823302-107.8708-24.25952-139.937123-29.789467-35.270295-70.25918-37.558407-74.777077-37.70167l-48.342008-0.016373c-8.021697-8.126075-19.296485-13.257955-31.871895-13.257955-24.328082 0-44.051285 18.97619-44.051285 42.396599 0 23.416316 19.723204 42.394552 44.051285 42.394552 11.475356 0 21.822005-4.324492 29.659507-11.238972l48.65821 0c1.825578 0.195451 16.856923 2.178619 28.068266 15.461133 14.925944 17.673521 18.779715 49.333592 11.151991 91.570555-1.853208 10.262738-3.697205 20.826328-5.567809 31.592532-26.337855 151.446247-54.538127 269.015943-150.184511 282.364973L465.504036 535.611767 348.046904 535.611767l0 25.000394c-99.92585-9.674337-128.676661-128.766712-155.50468-282.978956-1.871627-10.774391-3.714602-21.349237-5.567809-31.619138-7.514137-41.620933-3.870144-73.031317 10.540054-90.829681 11.367909-14.046924 27.001981-16.015765 28.716019-16.202007l48.63058 0c7.830339 6.91448 18.186198 11.238972 29.659507 11.238972 24.328082 0 44.043099-18.978237 44.043099-42.394552 0-23.420409-19.715017-42.396599-44.043099-42.396599-12.57541 0-23.840988 5.131881-31.862685 13.257955l-47.318702 0-1.041726 0.016373c-4.51585 0.143263-44.985564 2.432399-74.777077 37.70167-27.080775 32.0653-35.243689 79.144548-24.257473 139.937123 1.834788 10.152221 3.653203 20.599154 5.504364 31.248701 23.777543 136.674822 56.33096 323.2041 217.279628 333.466837l0 26.51284 28.900214 0 0 177.488367c0 73.617671 62.220087 133.511783 138.700969 133.511783l8.946766 0c76.482929 0 138.700969-59.894112 138.700969-133.511783l0-94.748944c0-40.368406 34.125215-73.215512 76.06235-73.215512l8.948813 0c41.939181 0 76.06235 32.847106 76.06235 73.215512l0 36.655851c-40.268122 12.928451-69.341275 49.445132-69.341275 92.564185 0 53.919027 45.406143 97.625458 101.412714 97.625458 56.015781 0 101.421924-43.706431 101.421924-97.625458C957.862697 815.864636 928.08244 778.920212 887.007953 766.435876zM856.440773 891.830795c-18.525935 0-33.558303-14.45113-33.558303-32.299637 0-10.633175 5.402033-19.96982 13.625322-25.857924l39.875173 0c8.223289 5.887081 13.623275 15.22475 13.623275 25.857924C890.00624 877.379665 874.986151 891.830795 856.440773 891.830795z" p-id="1037"></path></svg>