<?xml version="1.0" standalone="no"?><!DOCTYPE svg PUBLIC "-//W3C//DTD SVG 1.1//EN" "http://www.w3.org/Graphics/SVG/1.1/DTD/svg11.dtd"><svg t="1501464510968" class="icon" style="" viewBox="0 0 1024 1024" version="1.1" xmlns="http://www.w3.org/2000/svg" p-id="1670" xmlns:xlink="http://www.w3.org/1999/xlink" width="200" height="200"><defs><style type="text/css"></style></defs><path d="M800.768 30.72H223.232c-106.496 0-192.512 86.016-192.512 192.512v577.536c0 106.496 86.016 192.512 192.512 192.512h577.536c106.496 0 192.512-86.016 192.512-192.512V223.232c0-106.496-86.016-192.512-192.512-192.512z m96.256 673.792c0 106.496-86.016 192.512-192.512 192.512H319.488c-106.496 0-192.512-86.016-192.512-192.512V319.488c0-106.496 86.016-192.512 192.512-192.512h385.024c106.496 0 192.512 86.016 192.512 192.512v385.024z" p-id="1671"></path><path d="M374.784 604.16v184.32h92.16v-368.64l-229.376 184.32h137.216z m274.432-184.32v-184.32h-92.16v368.64l229.376-184.32h-137.216z" p-id="1672"></path></svg>