<?xml version="1.0" standalone="no"?><!DOCTYPE svg PUBLIC "-//W3C//DTD SVG 1.1//EN" "http://www.w3.org/Graphics/SVG/1.1/DTD/svg11.dtd"><svg t="1501464535555" class="icon" style="" viewBox="0 0 1024 1024" version="1.1" xmlns="http://www.w3.org/2000/svg" p-id="2447" xmlns:xlink="http://www.w3.org/1999/xlink" width="200" height="200"><defs><style type="text/css"></style></defs><path d="M406.047 829.195v0h-39.781c-6.41 0-12.633 2.451-17.344 6.976l-100.299 95.962c-7.165 6.788-17.156 11.123-28.091 11.123v0 0c-0.189 0-0.377 0-0.565 0-10.746-0.189-20.549-4.335-27.526-11.123-0.189-0.189-0.189-0.377-0.377-0.565-1.696-1.696-3.205-3.205-4.335-5.090-0.565-0.753-0.944-1.508-1.321-2.26-0.753-1.321-1.696-2.639-2.26-4.148-0.377-0.753-0.377-1.508-0.753-2.075-0.565-1.696-1.321-3.205-1.696-4.901-0.565-2.451-0.753-5.090-0.753-7.73v0-75.979h-25.263c-37.706-2.075-67.495-39.781-67.495-75.601v-452.285c0-38.649 41.1-92.569 106.896-92.569h625.733c73.527 0 115.193 54.863 115.002 90.683v446.629c0 51.281-67.117 84.838-116.512 83.519l-413.259-0.565zM313.289 449.308c-43.927 0-79.559 33.935-79.559 75.979s35.632 75.979 79.559 75.979c43.927 0 79.559-33.935 79.559-75.979 0-41.853-35.632-75.979-79.559-75.979v0zM512 449.308c-43.927 0-79.559 33.935-79.559 75.979s35.632 75.979 79.559 75.979c43.927 0 79.559-33.935 79.559-75.979 0-41.853-35.632-75.979-79.559-75.979v0zM710.711 449.308c-43.927 0-79.559 33.935-79.559 75.979s35.632 75.979 79.559 75.979c43.927 0 79.559-33.935 79.559-75.979 0-41.853-35.632-75.979-79.559-75.979v0zM710.711 449.308z" p-id="2448"></path></svg>